<svg width="36" height="36" viewBox="0 0 36 36" fill="none" xmlns="http://www.w3.org/2000/svg">
<circle cx="18" cy="18" r="18" fill="#E9EFF8"/>
<path d="M23.968 13C23.092 12.9833 22.375 13.7169 22.375 14.5931V17.9998H22.0625V11.1166C22.0625 10.2404 21.3454 9.50672 20.4695 9.52347C19.6206 9.53972 18.9375 10.2329 18.9375 11.0857V17.9998H18.625V9.59312C18.625 8.71695 17.9079 7.98328 17.032 8.00004C16.1831 8.01629 15.5 8.70949 15.5 9.56226V17.9998H15.1875V11.1556C15.1875 10.2795 14.4704 9.54578 13.5945 9.56254C12.7456 9.57879 12.0625 10.272 12.0625 11.1248V20.3432L10.8262 18.6432C10.3187 17.9453 9.34149 17.791 8.64353 18.2986C7.94567 18.8062 7.79138 19.7834 8.29892 20.4813L13.2052 27.2276C13.3791 27.4667 13.6072 27.6614 13.8707 27.7956C14.1343 27.9298 14.4258 27.9998 14.7216 27.9998H22.4399C23.31 27.9998 24.0658 27.4012 24.2651 26.5542L25.3005 22.1534C25.433 21.5904 25.4999 21.014 25.4999 20.4357V14.5623C25.5 13.7095 24.8168 13.0163 23.968 13V13Z" fill="#67A5F8"/>
</svg>
