<svg width="36" height="36" viewBox="0 0 36 36" fill="none" xmlns="http://www.w3.org/2000/svg">
<circle cx="18" cy="18" r="18" fill="#F8F1DE"/>
<g clip-path="url(#clip0_1467_4818)">
<path d="M18 28C23.524 28 28 23.524 28 18C28 12.476 23.524 8 18 8C12.476 8 8 12.476 8 18C8 23.524 12.476 28 18 28ZM16.9327 12.6827V11.875C16.9327 11.4327 17.2885 11.0769 17.7308 11.0769H18.2644C18.7067 11.0769 19.0625 11.4327 19.0625 11.875V12.6923C19.8077 12.7308 20.5288 12.9856 21.1298 13.4327C21.399 13.6298 21.4279 14.024 21.1875 14.2548L20.4038 15C20.2212 15.1779 19.9471 15.1827 19.7308 15.0481C19.4712 14.8846 19.1827 14.8029 18.875 14.8029H17.0048C16.5721 14.8029 16.2212 15.1971 16.2212 15.6827C16.2212 16.0769 16.4615 16.4279 16.8029 16.5288L19.7981 17.4279C21.0337 17.7981 21.899 18.9856 21.899 20.3173C21.899 21.9519 20.6298 23.274 19.0577 23.3173V24.125C19.0577 24.5673 18.7019 24.9231 18.2596 24.9231H17.726C17.2837 24.9231 16.9279 24.5673 16.9279 24.125V23.3077C16.1827 23.2692 15.4615 23.0144 14.8606 22.5673C14.5913 22.3702 14.5625 21.976 14.8029 21.7452L15.5865 21C15.7692 20.8221 16.0433 20.8173 16.2596 20.9519C16.5192 21.1154 16.8077 21.1971 17.1154 21.1971H18.9856C19.4183 21.1971 19.7692 20.8029 19.7692 20.3173C19.7692 19.9231 19.5288 19.5721 19.1875 19.4712L16.1923 18.5721C14.9567 18.2019 14.0913 17.0144 14.0913 15.6827C14.0962 14.0481 15.3606 12.726 16.9327 12.6827Z" fill="#EFB755"/>
</g>
<defs>
<clipPath id="clip0_1467_4818">
<rect width="20" height="20" fill="white" transform="translate(8 8)"/>
</clipPath>
</defs>
</svg>
